<?xml version="1.0" encoding="UTF-8" standalone="no"?>
<!-- Created with Inkscape (http://www.inkscape.org/) -->

<svg
   xmlns:dc="http://purl.org/dc/elements/1.1/"
   xmlns:cc="http://creativecommons.org/ns#"
   xmlns:rdf="http://www.w3.org/1999/02/22-rdf-syntax-ns#"
   xmlns:svg="http://www.w3.org/2000/svg"
   xmlns="http://www.w3.org/2000/svg"
   xmlns:sodipodi="http://sodipodi.sourceforge.net/DTD/sodipodi-0.dtd"
   xmlns:inkscape="http://www.inkscape.org/namespaces/inkscape"
   width="111.88546mm"
   height="146.96465mm"
   viewBox="0 0 111.88546 146.96465"
   version="1.1"
   id="svg8"
   inkscape:version="0.92.2 (5c3e80d, 2017-08-06)"
   sodipodi:docname="blue.svg">
  <defs
     id="defs2" />
  <sodipodi:namedview
     id="base"
     pagecolor="#ffffff"
     bordercolor="#666666"
     borderopacity="1.0"
     inkscape:pageopacity="0.0"
     inkscape:pageshadow="2"
     inkscape:zoom="15.839192"
     inkscape:cx="152.64302"
     inkscape:cy="554.52814"
     inkscape:document-units="mm"
     inkscape:current-layer="layer1"
     showgrid="false"
     fit-margin-top="0"
     fit-margin-left="0"
     fit-margin-right="0"
     fit-margin-bottom="0"
     inkscape:window-width="1920"
     inkscape:window-height="1017"
     inkscape:window-x="-8"
     inkscape:window-y="-8"
     inkscape:window-maximized="1" />
  <metadata
     id="metadata5">
    <rdf:RDF>
      <cc:Work
         rdf:about="">
        <dc:format>image/svg+xml</dc:format>
        <dc:type
           rdf:resource="http://purl.org/dc/dcmitype/StillImage" />
        <dc:title></dc:title>
      </cc:Work>
    </rdf:RDF>
  </metadata>
  <g
     inkscape:label="Capa 1"
     inkscape:groupmode="layer"
     id="layer1"
     transform="translate(-97.833233,-98.177017)">
    <path
       sodipodi:nodetypes="ssscccsssssscsscsssscc"
       inkscape:connector-curvature="0"
       id="path840"
       d="m 150.47692,241.5257 c -1.60342,-1.98879 -5.86305,-7.18785 -9.46585,-11.55348 -14.73556,-17.85555 -20.83655,-25.8103 -27.32733,-35.63055 -8.08338,-12.2298 -12.21652,-20.61596 -14.72697,-29.88107 -1.08872,-4.0181 -1.12756,-4.39982 -1.12329,-11.04115 0.004,-5.77154 0.12936,-7.44718 0.78038,-10.40695 2.60757,-11.85486 7.87583,-21.22773 16.58739,-29.51099 14.95031,-14.21527 36.42127,-18.978041 56.09564,-12.44335 12.09371,4.01683 22.19959,11.77759 29.22267,22.4414 7.65948,11.63012 10.84297,26.17414 8.38172,38.29264 -1.85533,9.13513 -6.41392,19.01001 -14.50109,31.41246 -6.36843,9.76659 -11.85235,16.93066 -27.59294,36.04677 -5.50551,6.68614 -10.64426,12.99668 -11.41947,14.02343 -0.77519,1.02675 -1.54132,1.86681 -1.7025,1.86681 -0.16119,0 -1.60495,-1.62719 -3.20836,-3.61597 z m 12.09478,-52.59174 c 16.6951,-4.32063 27.87619,-19.50926 27.02134,-36.70634 -0.25407,-5.11103 -1.26928,-9.0033 -3.59974,-13.80123 -11.05098,-22.75163 -41.38075,-27.28844 -58.74131,-8.78668 -16.32746,17.40075 -11.41719,45.42176 9.87778,56.36874 5.93611,3.05154 10.84749,4.14843 17.63889,3.9394 3.19964,-0.0985 5.34089,-0.3767 7.80304,-1.01389 z"
       style="fill:#718be7;stroke-width:0.35277778;fill-opacity:1" />
    <path
       sodipodi:nodetypes="cssscssscsscscccscssssscccssscssssssscc"
       inkscape:connector-curvature="0"
       id="path836"
       d="m 151.74263,242.23125 c -0.94545,-1.21267 -5.70006,-7.04673 -10.56581,-12.96458 -10.74605,-13.06963 -14.41919,-17.6816 -19.38661,-24.34167 -13.09107,-17.55185 -20.78683,-32.27648 -22.95501,-43.92083 -0.79824,-4.28699 -0.54126,-13.71757 0.50176,-18.41299 4.8691,-21.91967 21.77336,-38.43037 43.88607,-42.86432 5.08797,-1.020223 14.87397,-1.11674 19.8359,-0.195644 22.90437,4.251804 40.16628,21.030734 45.04218,43.781934 1.15237,5.37704 1.13947,14.9434 -0.0265,19.6313 -2.39722,9.63847 -6.86854,18.93162 -15.02164,31.22083 -6.1554,9.27805 -12.79131,17.9075 -26.99246,35.10139 -3.60575,4.36562 -7.86743,9.56469 -9.4704,11.55347 -1.60297,1.98879 -2.96265,3.61597 -3.02151,3.61597 -0.0589,0 -0.88055,-0.99218 -1.826,-2.20486 z m 9.32338,-52.33607 c 13.54782,-2.79837 24.584,-13.30472 28.15103,-26.79953 0.80619,-3.04997 0.92682,-4.20921 0.93348,-8.97065 0.007,-4.78146 -0.10706,-5.89798 -0.90589,-8.89205 -5.28002,-19.78986 -24.99069,-31.51945 -44.61653,-26.55077 -12.67095,3.20791 -22.62841,12.91899 -26.3945,25.74143 -1.32741,4.51946 -1.58654,11.94875 -0.58447,16.75695 1.46787,7.04321 4.55799,12.90145 9.52086,18.04965 6.53599,6.78006 13.16588,9.98529 23.54172,11.38128 1.83672,0.24712 7.63052,-0.15369 10.3543,-0.71631 z m 44.14202,-45.52967 c -0.85202,-5.63367 -3.84649,-13.16139 -7.41452,-18.63912 -5.30402,-8.14289 -12.29473,-14.32032 -20.97624,-18.5359 -6.74092,-3.27325 -11.64783,-4.62769 -19.14715,-5.28512 -25.31259,-2.219016 -49.13951,15.02473 -55.09454,39.87241 -1.22742,5.1215 -0.86803,6.04655 0.54823,1.41111 3.06308,-10.02547 7.37982,-17.19746 14.37748,-23.88727 7.16067,-6.84564 15.83454,-11.37073 25.97848,-13.55275 3.12523,-0.67226 4.72419,-0.79318 10.23055,-0.77369 5.58851,0.0198 7.1094,0.14989 10.58334,0.90533 13.98839,3.04193 25.59584,11.01678 33.25032,22.84449 3.18715,4.92479 5.18318,9.45608 6.95744,15.79442 0.44926,1.60491 0.88609,2.84877 0.97074,2.76412 0.0847,-0.0847 -0.0342,-1.39777 -0.26413,-2.91803 z"
       style="fill:#263edb;stroke-width:0.35277778;fill-opacity:1" />
  </g>
</svg>
